<?xml version="1.0" encoding="UTF-8" standalone="no"?>
<svg xmlns:dc="http://purl.org/dc/elements/1.1/" xmlns:cc="http://creativecommons.org/ns#" xmlns:rdf="http://www.w3.org/1999/02/22-rdf-syntax-ns#" xmlns:svg="http://www.w3.org/2000/svg" xmlns="http://www.w3.org/2000/svg" viewBox="0 0 502.61334 366.66666" height="366.66666" width="502.61334" xml:space="preserve" id="svg2" version="1.1">
  <metadata id="metadata8"></metadata>
  <defs id="defs6"></defs>
  <g transform="matrix(1.3333333,0,0,-1.3333333,0,366.66667)" id="g10">
    <g transform="scale(0.1)" id="g12">
      <path id="path14" style="fill:#3b61b6;fill-opacity:1;fill-rule:nonzero;stroke:none" d="M 999.863,441.852 V 15.8008 h 31.577 V 315.82 L 1204.56,4.60156 1377.97,315.82 V 15.8008 h 31.58 V 441.852 L 1204.56,66.9102 999.863,441.852"></path>
      <path id="path16" style="fill:#3b61b6;fill-opacity:1;fill-rule:nonzero;stroke:none" d="m 1507.49,16.3711 h 325.29 V 47.9492 H 1539.07 V 200.398 h 273.6 v 31.293 h -273.6 V 395.34 h 293.71 v 31.582 H 1507.49 V 16.3711"></path>
      <path id="path18" style="fill:#3b61b6;fill-opacity:1;fill-rule:nonzero;stroke:none" d="M 2204.17,98.4805 C 2170.28,64.6094 2129.41,47.6602 2081.58,47.6602 H 1938.31 V 395.059 h 143.27 c 47.83,0 88.7,-17.047 122.59,-51.11 33.86,-34.07 50.81,-75.027 50.81,-122.879 0,-47.851 -16.95,-88.711 -50.81,-122.5895 z M 2081.58,426.352 H 1906.73 V 16.3711 h 174.85 c 56.45,0 104.77,20 144.98,60.0078 40,39.9921 60.01,88.2301 60.01,144.6911 0,56.461 -20.01,104.789 -60.01,144.981 -40.21,40.199 -88.53,60.301 -144.98,60.301"></path>
      <path id="path20" style="fill:#3b61b6;fill-opacity:1;fill-rule:nonzero;stroke:none" d="m 2366,16.3711 h 31.58 V 426.352 H 2366 V 16.3711"></path>
      <path id="path22" style="fill:#3b61b6;fill-opacity:1;fill-rule:nonzero;stroke:none" d="m 2698.79,409.988 c 43.83,0 82.96,-13.687 117.41,-41.058 33.9,-26.809 55.89,-61.149 66.05,-103.071 h 32.44 c -10.53,50.532 -35.8,92.352 -75.79,125.461 -40.78,33.489 -87.48,50.25 -140.11,50.25 -60.87,0 -112.94,-21.629 -156.19,-64.879 -43.06,-43.082 -64.59,-95.043 -64.59,-155.91 0,-60.871 21.53,-112.832 64.59,-155.8904 C 2585.85,21.6289 2637.92,0 2698.79,0 c 52.63,0 99.33,16.75 140.11,50.25 39.99,33.1094 65.26,74.941 75.79,125.461 h -32.44 c -10.16,-41.91 -32.15,-76.2696 -66.05,-103.0704 -34.45,-27.3711 -73.58,-41.0508 -117.41,-41.0508 -52.26,0 -96.85,18.4688 -133.8,55.4102 -36.93,36.93 -55.4,81.539 -55.4,133.781 0,52.258 18.47,96.86 55.4,133.789 36.95,36.942 81.54,55.418 133.8,55.418"></path>
      <path id="path24" style="fill:#3b61b6;fill-opacity:1;fill-rule:nonzero;stroke:none" d="m 3039.82,150.148 119.14,231.411 119.15,-231.411 z M 2935.6,16.3711 h 35.32 l 52.82,102.4879 h 270.44 l 52.83,-102.4879 h 35.32 L 3158.96,450.18 2935.6,16.3711"></path>
      <path id="path26" style="fill:#3b61b6;fill-opacity:1;fill-rule:nonzero;stroke:none" d="M 3475.91,47.9492 V 426.922 h -31.58 V 16.3711 h 325.28 v 31.5781 h -293.7"></path>
      <path id="path28" style="fill:#3b61b6;fill-opacity:1;fill-rule:nonzero;stroke:none" d="m 2568.07,1033.11 c 0,-100.219 -13.46,-179.54 -40.4,-237.899 -26.93,-58.352 -62.1,-100.223 -105.48,-125.68 -43.41,-25.422 -89.03,-38.152 -136.9,-38.152 h -109.52 -280.46 -4.49 c -16.48,0 -32.93,4.109 -49.37,12.351 -16.48,8.2 -34.05,22.442 -52.74,42.641 -18.73,20.199 -40.79,48.25 -66.21,84.16 -25.46,35.91 -56.11,82.27 -92.02,139.149 l -284.42,468.06 c 0.92,2.55 1.81,5.07 2.83,7.72 l 127.92,347.87 168.33,457.84 c 10.45,26.93 22.05,57.58 34.78,92.01 12.7,34.41 25.82,70.32 39.28,107.73 13.46,37.38 26.16,73.29 38.15,107.73 11.96,34.4 22.44,65.08 31.42,92.02 8.98,-37.43 20.56,-81.92 34.79,-133.54 14.2,-51.62 29.18,-102.51 44.88,-152.61 15.71,-50.15 29.53,-93.15 41.52,-129.05 l 139.15,-419.68 6.74,-22.45 127.92,-377.04 c 5.96,-16.48 10.45,-31.8 13.47,-46.01 2.98,-14.23 5.61,-26.93 7.85,-38.15 2.25,-11.22 3.37,-21.32 3.37,-30.3 0,-25.46 -8.63,-43.76 -25.81,-54.98 -17.22,-11.23 -43.03,-16.84 -77.43,-16.84 h -121.2 v -22.44 h 584.05 z m 412.95,1684.35 c 17.95,6.73 37.38,10.1 58.36,10.1 h 94.26 V 2750 h -774.29 v -22.44 h 94.26 c 20.94,0 40.01,-3.02 57.23,-8.98 17.18,-6 31.04,-18.72 41.52,-38.16 10.45,-19.45 15.71,-49.37 15.71,-89.76 V 1281.64 c -6.99,15.02 -13.91,31.52 -20.73,49.97 L 2044.63,2750 h -219.95 l -493.44,-1347.88 -467.185,768.85 332.155,359.08 c 56.85,61.34 103.59,105.84 140.27,133.54 36.64,27.67 70.3,45.24 101,52.74 30.64,7.47 66.2,11.23 106.59,11.23 V 2750 H 989.73 v -22.44 c 56.85,0 101.73,-2.25 134.66,-6.74 32.9,-4.49 56.11,-12.34 69.57,-23.56 13.47,-11.22 20.2,-27.31 20.2,-48.26 0,-14.96 -5.26,-32.92 -15.7,-53.86 -10.49,-20.96 -25.82,-44.53 -46.02,-70.69 -20.19,-26.2 -45.27,-55.76 -75.18,-88.65 L 563.316,1881.45 v 700.23 c 0,43.38 5.231,75.18 15.707,95.38 10.454,20.2 24.692,33.66 42.645,40.4 17.953,6.73 37.379,10.1 58.352,10.1 h 94.257 V 2750 H 0 v -22.44 h 94.2578 c 20.9332,0 40.0152,-3.02 57.2262,-8.98 17.192,-6 31.036,-18.72 41.52,-38.16 10.457,-19.45 15.715,-49.37 15.715,-89.76 V 1304.67 c 0,-38.92 -5.258,-68.1 -15.715,-87.53 -10.484,-19.46 -24.328,-32.19 -41.52,-38.15 -17.211,-6 -36.293,-8.98 -57.2262,-8.98 H 0 v -22.44 h 774.277 v 22.44 H 680.02 c -20.973,0 -40.399,3.37 -58.352,10.1 -17.953,6.74 -32.191,20.55 -42.645,41.52 -10.476,20.93 -15.707,52.36 -15.707,94.26 v 531.9 l 67.329,71.82 642.995,-1104.188 c 20.94,-35.91 42.99,-66.981 66.21,-93.141 23.18,-26.199 52.35,-47.519 87.52,-63.972 35.14,-16.469 80.42,-28.821 135.78,-37.02 55.34,-8.25 125.69,-12.348 210.97,-12.348 h 121.19 280.46 149.92 c 76.3,0 150.37,8.981 222.18,26.93 71.82,17.949 135.78,47.129 191.89,87.527 56.11,40.391 100.61,95.024 133.54,163.832 32.89,68.84 49.37,154.12 49.37,255.85 v 1438.6 c 0,43.38 5.23,75.18 15.71,95.38 10.45,20.2 24.69,33.66 42.64,40.4"></path>
      <path id="path30" style="fill:#3b61b6;fill-opacity:1;fill-rule:nonzero;stroke:none" d="m 1788.77,1849.6 c -48.21,0 -87.3,-39.08 -87.3,-87.3 0,-48.21 39.09,-87.3 87.3,-87.3 48.21,0 87.3,39.09 87.3,87.3 0,48.22 -39.09,87.3 -87.3,87.3"></path>
    </g>
  </g>
</svg>
