<svg width="32" height="32" viewBox="0 0 32 32" fill="none" xmlns="http://www.w3.org/2000/svg">
  <!-- Background -->
  <rect width="32" height="32" rx="4" fill="#1e293b"/>
  
  <!-- Monitor -->
  <rect x="4" y="6" width="24" height="16" rx="2" fill="#334155" stroke="#64748b" stroke-width="1"/>
  
  <!-- Screen content - code -->
  <rect x="6" y="8" width="6" height="1" fill="#22c55e"/>
  <rect x="6" y="10" width="8" height="1" fill="#3b82f6"/>
  <rect x="6" y="12" width="4" height="1" fill="#f59e0b"/>
  <rect x="6" y="14" width="7" height="1" fill="#ef4444"/>
  <rect x="6" y="16" width="5" height="1" fill="#8b5cf6"/>
  
  <!-- Monitor stand -->
  <rect x="14" y="22" width="4" height="2" fill="#64748b"/>
  <rect x="12" y="24" width="8" height="1" fill="#64748b"/>
  
  <!-- Keyboard -->
  <rect x="2" y="26" width="28" height="4" rx="1" fill="#475569"/>
  <rect x="3" y="27" width="1.5" height="2" fill="#64748b"/>
  <rect x="5" y="27" width="1.5" height="2" fill="#64748b"/>
  <rect x="7" y="27" width="1.5" height="2" fill="#64748b"/>
  <rect x="9" y="27" width="1.5" height="2" fill="#64748b"/>
  <rect x="11" y="27" width="1.5" height="2" fill="#64748b"/>
  <rect x="13" y="27" width="1.5" height="2" fill="#64748b"/>
  <rect x="15" y="27" width="1.5" height="2" fill="#64748b"/>
  <rect x="17" y="27" width="1.5" height="2" fill="#64748b"/>
  <rect x="19" y="27" width="1.5" height="2" fill="#64748b"/>
  <rect x="21" y="27" width="1.5" height="2" fill="#64748b"/>
  <rect x="23" y="27" width="1.5" height="2" fill="#64748b"/>
  <rect x="25" y="27" width="1.5" height="2" fill="#64748b"/>
  <rect x="27" y="27" width="1.5" height="2" fill="#64748b"/>
</svg>
