<?xml version="1.0" encoding="utf-8"?>
<!-- Generator: Adobe Illustrator 25.2.3, SVG Export Plug-In . SVG Version: 6.00 Build 0)  -->
<svg version="1.1" id="Layer_1" xmlns="http://www.w3.org/2000/svg" xmlns:xlink="http://www.w3.org/1999/xlink" x="0px" y="0px"
	 viewBox="0 0 225 225" style="enable-background:new 0 0 225 225;" xml:space="preserve">
<style type="text/css">
	.st0{fill:#34B2B1;}
	.st1{fill:#294666;}
</style>
<path class="st0" d="M112.8,21.3c-9.8,9.8-16.1,22.5-18,36.2v-0.1v0.1c0,0.1,0,0.1,0,0.2c-0.6,4.8-0.8,9.7-0.3,14.5
	c0.8,6.7,6.8,11.5,13.5,10.7c6.5-0.7,11.2-6.5,10.8-13c-2-21.5,13.8-40.6,35.3-42.6s40.6,13.8,42.6,35.3s-13.8,40.6-35.3,42.6
	c-1.3,0.1-2.5,0.2-3.8,0.2h-1.9c-4.9,0-9.8-0.4-14.6-1.3l-0.3-0.1L100,97c3.7,9.7,8.6,18.9,14.6,27.4l19.5,3.4l0.3,0.1l2.7,0.4
	c6.2,1.1,12.6,1.6,18.9,1.6h1.8c35.1,0,63.5-28.5,63.5-63.6S192.8,2.7,157.7,2.8C140.8,2.8,124.7,9.4,112.8,21.3z"/>
<path class="st1" d="M94.8,57.5L94.8,57.5c0,0,0,0.1,0,0.2C94.8,57.6,94.8,57.6,94.8,57.5z"/>
<path class="st1" d="M78.4,136.4c-6.7-1.1-13,3.4-14.1,10.1s3.4,13,10.1,14.1l31,5.1c-1.6,7.2-5.3,13.8-10.5,19
	c-15.3,15.3-40.1,15.3-55.3,0s-15.3-40.1,0-55.3C47,122,57,117.9,67.4,117.9h1.9c4.9,0,9.8,0.4,14.6,1.3l30.7,5.4
	c-6-8.5-10.9-17.7-14.6-27.4l-11.9-2.1c-6.3-1.1-12.6-1.7-19-1.6h-1.8C32.2,93.4,3.7,121.9,3.7,157s28.4,63.6,63.6,63.6
	c16.9,0,33-6.7,45-18.6c12.4-12.4,19.1-29.3,18.6-46.8c-0.2-5.8-4.4-10.8-10.2-11.7L78.4,136.4z"/>
</svg>
